# xmcd
#
# Track frame offsets:
#	150
#	13550
#	30305
#	44682
#	57856
#	75438
#	97952
#	111236
#	126105
#	146133
#	162339
#	173001
#	186682
#	198909
#	211195
#	225833
#	237586
#	253272
#	271634
#	284801
#
# Disc length: 3929 seconds
#
# Revision: 0
# Processed by: cddbd v1.5.2PL0 Copyright (c) Steve Scherf et al.
# Submitted via: VUPlayer 2.49
#
DISCID=190f5714
DTITLE=Zangeres Zonder Naam - De onvergetelijke ZZN CD-1
DYEAR=2007
DGENRE=Hollands
TTITLE0=Ach vaderlief =1958=
TTITLE1=Mandolinen in Nicosia =1972=
TTITLE2=De bedelaar van Parijs =1961=
TTITLE3=De blinde soldaat =1961=
TTITLE4=Jongens van 18 j66r
TTITLE5=Weet je waarom ik huil =1977=
TTITLE6=Het mooiste geschenk in m'n leven =1983=
TTITLE7=Denk toch heel goed na =1982=
TTITLE8=Balalaika =1973=
TTITLE9=In Santo Domingo =1979=
TTITLE10=De meid van de straat =1961=
TTITLE11=Kindergebed =1959=
TTITLE12=Arme kleine Madeleine =1962=
TTITLE13=Boeiende twijgen =1959=
TTITLE14=Rij voorzichtig =1962=
TTITLE15=Vier muren =1984=
TTITLE16=Oordeel nooit over een ander =1984=
TTITLE17=Een moeder van een zeeman =1983=
TTITLE18='t Was aan de Costa del Sol =Live Paradiso==1986=
TTITLE19=en Normaal - Rock Around the Clock =1987=
EXTD=
EXTT0=
EXTT1=
EXTT2=
EXTT3=
EXTT4=
EXTT5=
EXTT6=
EXTT7=
EXTT8=
EXTT9=
EXTT10=
EXTT11=
EXTT12=
EXTT13=
EXTT14=
EXTT15=
EXTT16=
EXTT17=
EXTT18=
EXTT19=
PLAYORDER=
